<?xml version="1.0" encoding="UTF-8" standalone="no"?>
<!-- Generator: Adobe Illustrator 16.0.3, SVG Export Plug-In . SVG Version: 6.00 Build 0)  -->

<svg
   version="1.1"
   id="Ebene_1"
   x="0px"
   y="0px"
   width="562.0105"
   height="436.01086"
   viewBox="0 0 562.01047 436.01086"
   enable-background="new 0 0 595.28 841.89"
   xml:space="preserve"
   sodipodi:docname="bg-image.svg"
   inkscape:export-filename="bg-image-2.svg"
   inkscape:export-xdpi="107.88872"
   inkscape:export-ydpi="107.88872"
   inkscape:version="1.3.2 (1:1.3.2+202311252150+091e20ef0f)"
   xmlns:inkscape="http://www.inkscape.org/namespaces/inkscape"
   xmlns:sodipodi="http://sodipodi.sourceforge.net/DTD/sodipodi-0.dtd"
   xmlns="http://www.w3.org/2000/svg"
   xmlns:svg="http://www.w3.org/2000/svg"><defs
   id="defs31" /><sodipodi:namedview
   id="namedview31"
   pagecolor="#ffffff"
   bordercolor="#000000"
   borderopacity="0.25"
   inkscape:showpageshadow="2"
   inkscape:pageopacity="0.0"
   inkscape:pagecheckerboard="0"
   inkscape:deskcolor="#d1d1d1"
   inkscape:zoom="1.6825375"
   inkscape:cx="166.41531"
   inkscape:cy="403.25996"
   inkscape:window-width="2490"
   inkscape:window-height="1363"
   inkscape:window-x="70"
   inkscape:window-y="40"
   inkscape:window-maximized="1"
   inkscape:current-layer="Ebene_1" />
<g
   id="g7"
   transform="matrix(1.0113306,0,0.02467142,1.0125231,-21.243593,-177.98952)">
	<g
   opacity="0.2"
   id="g6">
		<path
   fill-rule="evenodd"
   clip-rule="evenodd"
   fill="#ffffff"
   d="m 219.335,196.954 c 0.532,86.845 -68.571,73.464 -99.853,115.385 -31.276,41.918 -22.667,87.231 115.963,86.999 138.035,-0.234 175.511,-0.295 238.534,-8.707 63.608,-8.412 80.732,-30.238 63.197,-75.539 C 519.647,269.795 349.28,236.869 334.727,191.563"
   id="path1" />
		<path
   fill-rule="evenodd"
   clip-rule="evenodd"
   fill="#d9d9d9"
   d="m 119.482,312.339 c -31.276,41.918 -22.667,87.231 115.963,86.999 138.035,-0.234 175.511,-0.295 238.534,-8.707 63.608,-8.412 80.732,-30.238 63.197,-75.539 -17.529,-45.297 -187.896,-78.223 -202.449,-123.529 -11.9,0.717 -11.9,0.717 -11.9,0.717 8.478,25.244 58.001,46.958 106.323,67.289 43.541,18.264 88.285,37.223 96.141,56.931 16.314,42.186 2.146,59.856 -53.734,67.218 -61.832,8.406 -99.31,8.469 -236.153,8.699 -55.932,0.096 -92.268,-7.111 -109.029,-21.957 -19.726,-17.266 -5.601,-41.858 3.84,-55.367 10.027,-13.168 24.856,-20.457 39.689,-28.092 30.253,-14.935 62.281,-31.247 61.916,-90.764 -12.484,0.718 -12.484,0.718 -12.484,0.718 0.531,86.844 -68.572,73.463 -99.854,115.384 z"
   id="path2" />
		<path
   fill-rule="evenodd"
   clip-rule="evenodd"
   fill="#ffffff"
   d="m 239.68,207.666 c 2.496,17.986 -6.809,53.287 -35.254,70.635 -28.461,17.344 -84.271,35.426 -74.49,78.996 -1.292,-17.297 25.282,-48.128 68.603,-67.916 41.53,-18.751 44.834,-62.346 41.141,-81.715 z"
   id="path3" />
		<path
   fill-rule="evenodd"
   clip-rule="evenodd"
   fill="#f2f2f2"
   d="m 400.388,253.103 c 28.689,13.791 97.956,37.886 113.586,60.001 15.631,22.117 33.771,65.674 -92.522,70.73 38.105,-5.604 89.264,-18.83 87.903,-46.504 -1.366,-27.676 -77.888,-69.057 -108.967,-84.227 z"
   id="path4" />
		<path
   fill="none"
   stroke="#ffffff"
   stroke-width="1.349"
   stroke-miterlimit="8"
   d="m 119.482,312.339 c -31.276,41.918 -22.667,87.231 115.963,86.999 138.035,-0.234 175.511,-0.295 238.534,-8.707 63.608,-8.412 80.732,-30.238 63.197,-75.539 -17.529,-45.297 -187.896,-78.223 -202.449,-123.529 -11.9,0.717 -11.9,0.717 -11.9,0.717 8.478,25.244 58.001,46.958 106.323,67.289 43.541,18.264 88.285,37.223 96.141,56.931 16.314,42.186 2.146,59.856 -53.734,67.218 -61.832,8.406 -99.31,8.469 -236.153,8.699 -55.932,0.096 -92.268,-7.111 -109.029,-21.957 -19.726,-17.266 -5.601,-41.858 3.84,-55.367 10.027,-13.168 24.856,-20.457 39.689,-28.092 30.253,-14.935 62.281,-31.247 61.916,-90.764 -12.484,0.718 -12.484,0.718 -12.484,0.718 0.531,86.844 -68.572,73.463 -99.854,115.384 z"
   id="path5" />
		<path
   fill="none"
   stroke="#333333"
   stroke-width="1.349"
   stroke-miterlimit="8"
   d="m 219.335,196.954 c 0.532,86.845 -68.571,73.464 -99.853,115.385 -31.276,41.918 -22.667,87.231 115.963,86.999 138.035,-0.234 175.511,-0.295 238.534,-8.707 63.608,-8.412 80.732,-30.238 63.197,-75.539 C 519.647,269.795 349.28,236.869 334.727,191.563"
   id="path6" />
	</g>
</g>
<g
   opacity="0.2"
   id="g11"
   transform="matrix(1.0001662,0,0,0.91183141,-7.8254835,-116.17041)">
	<path
   fill-rule="evenodd"
   clip-rule="evenodd"
   fill="#ffffff"
   d="m 60.995,585.449 c 9.917,-66.441 49.332,-73.532 119.94,-72.441 69.945,1.081 214.204,0.561 284.962,-3.848 71.348,-3.854 115.328,20.486 99.879,84.091"
   id="path7" />
	<path
   fill-rule="evenodd"
   clip-rule="evenodd"
   fill="#daedef"
   d="m 465.897,509.16 c -70.759,4.408 -215.018,4.929 -284.962,3.848 -70.608,-1.091 -110.023,6 -119.94,72.441 13.197,0.205 13.197,0.205 13.197,0.205 8.032,-53.811 33.178,-62.773 105.105,-61.661 75.221,1.161 216.18,0.583 286.278,-3.836 36.708,-2.183 62.858,4.275 77.39,17.714 12.14,11.736 15.286,30.494 9.699,54.626 13.112,0.754 13.112,0.754 13.112,0.754 15.45,-63.605 -28.531,-87.944 -99.879,-84.091 z"
   id="path8" />
	<path
   fill-rule="evenodd"
   clip-rule="evenodd"
   fill="#ffffff"
   d="m 89.247,577.173 c -0.01,-17.597 10.019,-40.544 50.093,-43.216 40.063,-2.684 136.361,-1.196 177.583,-2.759 -30.009,6.14 -144.435,10.972 -168.51,12.796 -24.068,1.828 -46.166,8.08 -59.166,33.179 z"
   id="path9" />
	<path
   fill="none"
   stroke="#ffffff"
   stroke-width="1.7916"
   stroke-miterlimit="8"
   d="m 465.897,509.16 c -70.759,4.408 -215.018,4.929 -284.962,3.848 -70.608,-1.091 -110.023,6 -119.94,72.441 13.197,0.205 13.197,0.205 13.197,0.205 8.032,-53.811 33.178,-62.773 105.105,-61.661 75.221,1.161 216.18,0.583 286.278,-3.836 36.708,-2.183 62.858,4.275 77.39,17.714 12.14,11.736 15.286,30.494 9.699,54.626 13.112,0.754 13.112,0.754 13.112,0.754 15.45,-63.605 -28.531,-87.944 -99.879,-84.091 z"
   id="path10" />
	<path
   fill="none"
   stroke="#333333"
   stroke-width="1.7916"
   stroke-miterlimit="8"
   d="m 60.995,585.449 c 9.917,-66.441 49.332,-73.532 119.94,-72.441 69.945,1.081 214.204,0.561 284.962,-3.848 71.348,-3.854 115.328,20.486 99.879,84.091"
   id="path11" />
</g>
<g
   id="g20"
   transform="translate(-7.7731638,-172.98912)">
	<g
   id="g17">
		<path
   fill-rule="evenodd"
   clip-rule="evenodd"
   fill="#ffffff"
   d="m 9.625,410.027 c 26.576,0 22.445,32.674 35.256,47.603 12.811,14.929 26.681,10.984 26.681,-54.642 0,-65.344 0,-83.086 -2.542,-112.943 -2.541,-30.136 -9.211,-38.306 -23.081,-30.136 -13.87,8.167 -24.033,88.72 -37.903,95.478"
   id="path12" />
		<path
   fill-rule="evenodd"
   clip-rule="evenodd"
   fill="#d9d9d9"
   d="m 44.881,457.63 c 12.811,14.929 26.681,10.984 26.681,-54.642 0,-65.344 0,-83.086 -2.542,-112.943 -2.541,-30.136 -9.211,-38.306 -23.081,-30.136 -13.87,8.167 -24.033,88.72 -37.903,95.478 0.213,5.635 0.213,5.635 0.213,5.635 7.729,-3.939 14.398,-27.32 20.645,-50.135 5.611,-20.561 11.435,-41.686 17.469,-45.346 12.917,-7.604 18.317,-0.846 20.54,25.631 2.54,29.293 2.54,47.035 2.54,111.816 0,26.477 -2.223,43.656 -6.775,51.546 -5.293,9.291 -12.811,2.532 -16.94,-1.976 -4.024,-4.787 -6.246,-11.826 -8.576,-18.87 -4.553,-14.365 -9.529,-29.575 -27.739,-29.575 0.211,5.914 0.211,5.914 0.211,5.914 26.577,0 22.446,32.674 35.257,47.603 z"
   id="path13" />
		<path
   fill-rule="evenodd"
   clip-rule="evenodd"
   fill="#ffffff"
   d="m 12.915,400.426 c 5.504,-1.127 16.301,3.379 21.595,16.896 5.292,13.522 10.796,39.995 24.134,35.491 C 53.351,453.376 43.93,440.704 37.897,420.139 32.18,400.426 18.843,398.734 12.915,400.426 Z"
   id="path14" />
		<path
   fill-rule="evenodd"
   clip-rule="evenodd"
   fill="#f2f2f2"
   d="m 26.9,324.482 c 4.235,-13.541 11.645,-46.26 18.418,-53.595 6.776,-7.337 20.113,-15.798 21.595,44.003 -1.695,-18.054 -5.716,-42.311 -14.185,-41.748 -8.467,0.567 -21.17,36.671 -25.828,51.34 z"
   id="path15" />
		<path
   fill="none"
   stroke="#ffffff"
   stroke-width="0.5134"
   stroke-miterlimit="8"
   d="m 44.881,457.63 c 12.811,14.929 26.681,10.984 26.681,-54.642 0,-65.344 0,-83.086 -2.542,-112.943 -2.541,-30.136 -9.211,-38.306 -23.081,-30.136 -13.87,8.167 -24.033,88.72 -37.903,95.478 0.213,5.635 0.213,5.635 0.213,5.635 7.729,-3.939 14.398,-27.32 20.645,-50.135 5.611,-20.561 11.435,-41.686 17.469,-45.346 12.917,-7.604 18.317,-0.846 20.54,25.631 2.54,29.293 2.54,47.035 2.54,111.816 0,26.477 -2.223,43.656 -6.775,51.546 -5.293,9.291 -12.811,2.532 -16.94,-1.976 -4.024,-4.787 -6.246,-11.826 -8.576,-18.87 -4.553,-14.365 -9.529,-29.575 -27.739,-29.575 0.211,5.914 0.211,5.914 0.211,5.914 26.577,0 22.446,32.674 35.257,47.603 z"
   id="path16" />
		<path
   fill="none"
   stroke="#333333"
   stroke-width="0.5134"
   stroke-miterlimit="8"
   d="m 9.625,410.027 c 26.576,0 22.445,32.674 35.256,47.603 12.811,14.929 26.681,10.984 26.681,-54.642 0,-65.344 0,-83.086 -2.542,-112.943 -2.541,-30.136 -9.211,-38.306 -23.081,-30.136 -13.87,8.167 -24.033,88.72 -37.903,95.478"
   id="path17" />
	</g>
	<path
   fill-rule="evenodd"
   clip-rule="evenodd"
   fill="#ffffff"
   d="m 60.163,399.394 c -0.16,-2.149 -0.422,-5.585 -1.763,-7.104 0.375,0.865 1.18,1.942 1.763,7.104 z"
   id="path18" />
	<path
   fill-rule="evenodd"
   clip-rule="evenodd"
   fill="#ffffff"
   d="m 53.728,402.418 c -0.625,-0.364 -1.874,-1.664 -2.214,-2.391"
   id="path19" />
	<path
   fill-rule="evenodd"
   clip-rule="evenodd"
   fill="#ffffff"
   d="m 56.138,281.506 c -0.442,-1.805 -1.155,-4.678 -2.599,-4.595 0.464,0.382 1.353,0.487 2.599,4.595 z"
   id="path20" />
</g>
<g
   id="g22"
   transform="translate(-5.1393906,-180.9638)">
	
		<rect
   x="410.242"
   y="181.202"
   fill="#f2f2f2"
   stroke="#333333"
   stroke-width="0.4764"
   stroke-miterlimit="10"
   width="127.759"
   height="51.155998"
   id="rect20" />
	
		
	
		<ellipse
   fill="#ffffff"
   stroke="#ff0000"
   stroke-width="0.5"
   stroke-miterlimit="10"
   cx="428.59601"
   cy="192.90601"
   rx="12.105"
   ry="6.5780001"
   id="ellipse20" />
	<text
   transform="translate(447.5439,195.9712)"
   font-family="ArialMT"
   font-size="9px"
   id="text20">AP target</text>
	<text
   transform="translate(447.5303,212.2441)"
   font-family="ArialMT"
   font-size="9px"
   id="text21">co-purification</text>
	<text
   transform="translate(447.5303,224.7998)"
   font-family="ArialMT"
   font-size="9px"
   id="text22">mutual co-purification</text>
	
		<line
   fill="none"
   stroke="#333333"
   stroke-width="0.75"
   stroke-miterlimit="10"
   x1="415.48999"
   y1="210.00301"
   x2="441.70599"
   y2="210.00301"
   id="line22" /><line
   fill="none"
   stroke="#333333"
   stroke-width="0.75"
   stroke-miterlimit="10"
   x1="415.49612"
   y1="222.83521"
   x2="441.71213"
   y2="222.83521"
   id="line22-3"
   style="fill:none;stroke:#ff0000" />
</g>
<g
   id="g23"
   transform="translate(-9.6315658,-189.15264)"
   inkscape:transform-center-x="-2.2664584"
   inkscape:transform-center-y="-11.906342">
	<rect
   x="106.5"
   y="250.5"
   fill="#cccccc"
   stroke="#000000"
   stroke-miterlimit="10"
   width="48"
   height="26"
   id="rect22" />
	<text
   transform="translate(111.9404,259.5659)"
   id="text23"><tspan
     x="0"
     y="0"
     font-family="MyriadPro-Regular"
     font-size="10px"
     id="tspan22">axon</tspan><tspan
     x="0"
     y="12"
     font-family="MyriadPro-Regular"
     font-size="10px"
     id="tspan23">guidance</tspan></text>
</g>
<g
   id="g25"
   transform="translate(2.2268362,-210.98912)">
	<rect
   x="358.5"
   y="298.5"
   fill="#cccccc"
   stroke="#000000"
   stroke-miterlimit="10"
   width="55"
   height="26"
   id="rect23" />
	<text
   transform="translate(362.8672,309.646)"
   id="text25"><tspan
     x="0"
     y="0"
     font-family="MyriadPro-Regular"
     font-size="10px"
     id="tspan24">active zone</tspan><tspan
     x="0"
     y="12"
     font-family="MyriadPro-Regular"
     font-size="10px"
     id="tspan25">exocytosis</tspan></text>
</g>
<g
   id="g27"
   transform="translate(-9.7731638,-190.98912)">
	<rect
   x="288.5"
   y="229.5"
   fill="#cccccc"
   stroke="#000000"
   stroke-miterlimit="10"
   width="48"
   height="26"
   id="rect25" />
	<text
   transform="translate(292.0361,239.1792)"
   id="text27"><tspan
     x="0"
     y="0"
     font-family="MyriadPro-Regular"
     font-size="10px"
     id="tspan26">axonal </tspan><tspan
     x="0"
     y="12"
     font-family="MyriadPro-Regular"
     font-size="10px"
     id="tspan27">trafficking</tspan></text>
</g>
<g
   id="g29"
   transform="translate(-59.773164,-176.98912)">
	<rect
   x="161.5"
   y="586.5"
   fill="#cccccc"
   stroke="#000000"
   stroke-miterlimit="10"
   width="97"
   height="26"
   id="rect27" />
	<text
   id="text29"
   transform="translate(167.0166,596.0527)"><tspan
     x="0"
     y="0"
     font-family="MyriadPro-Regular"
     font-size="10px"
     id="tspan28">excitatory </tspan><tspan
     x="0"
     y="12"
     font-family="MyriadPro-Regular"
     font-size="10px"
     id="tspan29">synaptic transmission</tspan></text>
</g>
<g
   id="g31"
   transform="translate(-32.96462,-188.98912)">
	<rect
   x="404.5"
   y="598.5"
   fill="#cccccc"
   stroke="#000000"
   stroke-miterlimit="10"
   width="97"
   height="26"
   id="rect29" />
	<text
   id="text31"
   x="407.2012"
   y="608.63281"><tspan
     x="407.2012"
     y="608.63281"
     font-family="MyriadPro-Regular"
     font-size="10px"
     id="tspan30">inhibitory</tspan><tspan
     x="407.2012"
     y="620.63281"
     font-family="MyriadPro-Regular"
     font-size="10px"
     id="tspan31">synaptic transmission</tspan></text>
</g>
</svg>
